<?xml version="1.0" encoding="utf-8"?>
<!-- Generator: Adobe Illustrator 24.1.0, SVG Export Plug-In . SVG Version: 6.00 Build 0)  -->
<svg version="1.1" id="Layer_1" xmlns="http://www.w3.org/2000/svg" xmlns:xlink="http://www.w3.org/1999/xlink" x="0px" y="0px"
	 viewBox="0 0 60 60" style="enable-background:new 0 0 60 60;" xml:space="preserve">
<path d="M40.9,6.4c-2.7-3.1-6.6-4.7-11.6-4.7c-5.2,0-9.6,1.8-13.2,5.5c-3.6,3.6-5.4,8.5-5.4,14.6c0,5.9,1.8,10.8,5.4,14.5
	c3.6,3.7,8.1,5.6,13.4,5.6c2.9,0,5.6-0.7,8.1-2.2c1.3-0.8,2.4-1.7,3.4-2.8v14.2H14.6v7.3h34.5V2.7h-8.2V6.4z M38.2,12.5
	c2.1,2.2,3.2,5.3,3.2,9.2c0,3.9-1.1,6.9-3.2,9.1l0,0c-2.1,2.2-4.8,3.3-8,3.3c-3.2,0-5.9-1.1-8-3.3c-2.1-2.2-3.2-5.3-3.2-9.2
	c0-3.9,1.1-6.9,3.2-9.2c2.1-2.2,4.8-3.4,8-3.4C33.4,9.2,36.1,10.3,38.2,12.5z"/>
</svg>
